<svg width="64" height="60" viewBox="0 0 64 60" fill="none" xmlns="http://www.w3.org/2000/svg">
<path d="M62.6217 43.6339L40.9341 6.06951C39.0947 2.88439 35.6714 0.90564 32 0.90564C28.3286 0.90564 24.9052 2.88439 23.0659 6.06976L1.37825 43.6339C0.4765 45.1956 0 46.9758 0 48.7819C0 54.4681 4.62625 59.0944 10.3125 59.0944H53.6875C59.3738 59.0944 64 54.4681 64 48.7819C64 46.9758 63.5234 45.1956 62.6217 43.6339ZM53.6875 57.2194H10.3125C5.66 57.2194 1.875 53.4344 1.875 48.7819C1.875 47.3044 2.26475 45.8484 3.00213 44.5713L24.6898 7.00714C26.1951 4.40014 28.9962 2.78064 32 2.78064C35.0038 2.78064 37.8049 4.40014 39.3102 7.00726L60.9979 44.5715C61.7351 45.8486 62.125 47.3045 62.125 48.7821C62.125 53.4344 58.34 57.2194 53.6875 57.2194Z" fill="#34CB79"/>
<path d="M58.2916 46.1336L36.6041 8.56977C35.6551 6.92639 33.891 5.90552 32 5.90552C30.109 5.90552 28.3449 6.92627 27.396 8.56964L17.4896 25.728C17.2308 26.1764 17.3844 26.7498 17.8328 27.0086C18.2813 27.2673 18.8545 27.1138 19.1134 26.6655L29.0198 9.50714C29.6348 8.44214 30.7767 7.78052 32 7.78052C33.2233 7.78052 34.3654 8.44227 34.9804 9.50727L56.6679 47.0713C56.9712 47.5966 57.125 48.1723 57.125 48.782C57.125 50.6774 55.5829 52.2195 53.6875 52.2195H10.3125C8.41712 52.2195 6.875 50.6774 6.875 48.782C6.875 48.1723 7.02875 47.5968 7.33213 47.0713L17.2384 29.9129C17.4972 29.4645 17.3436 28.8911 16.8953 28.6323C16.4465 28.3734 15.8734 28.5269 15.6146 28.9754L5.70837 46.1338C5.23825 46.9479 5 47.8388 5 48.7819C5 51.7113 7.38313 54.0944 10.3125 54.0944H53.6875C56.6169 54.0944 59 51.7113 59 48.7819C59 47.8388 58.7618 46.9478 58.2916 46.1336Z" fill="#34CB79"/>
<path d="M32 14.0944C29.7599 14.0944 27.9375 15.9167 27.9375 18.1569V35.0319C27.9375 37.272 29.7599 39.0944 32 39.0944C34.2401 39.0944 36.0625 37.272 36.0625 35.0319V18.1569C36.0625 15.9167 34.2401 14.0944 32 14.0944ZM34.1875 35.0319C34.1875 36.238 33.2061 37.2194 32 37.2194C30.7939 37.2194 29.8125 36.238 29.8125 35.0319V18.1569C29.8125 16.9507 30.7939 15.9694 32 15.9694C33.2061 15.9694 34.1875 16.9507 34.1875 18.1569V35.0319Z" fill="#34CB79"/>
<path d="M32 40.9694C29.7599 40.9694 27.9375 42.7917 27.9375 45.0319C27.9375 47.272 29.7599 49.0944 32 49.0944C34.2401 49.0944 36.0625 47.272 36.0625 45.0319C36.0625 42.7917 34.2401 40.9694 32 40.9694ZM32 47.2194C30.7939 47.2194 29.8125 46.238 29.8125 45.0319C29.8125 43.8257 30.7939 42.8444 32 42.8444C33.2061 42.8444 34.1875 43.8257 34.1875 45.0319C34.1875 46.238 33.2061 47.2194 32 47.2194Z" fill="#34CB79"/>
</svg>
